<svg class="w-8 h-8" viewBox="0 0 32 33" fill="none" xmlns="http://www.w3.org/2000/svg"><path d="M17.0011 21.1314C21.3716 21.0624 25.6449 19.8302 29.3811 17.5614V24.4914C29.3811 25.5523 28.9597 26.5697 28.2095 27.3199C27.4594 28.07 26.442 28.4914 25.3811 28.4914H6.62109C5.56023 28.4914 4.54281 28.07 3.79267 27.3199C3.04252 26.5697 2.62109 25.5523 2.62109 24.4914V17.5614C6.3573 19.8302 10.6305 21.0624 15.0011 21.1314V21.6914C15.0011 21.9566 15.1065 22.211 15.294 22.3985C15.4815 22.5861 15.7359 22.6914 16.0011 22.6914C16.2663 22.6914 16.5207 22.5861 16.7082 22.3985C16.8957 22.211 17.0011 21.9566 17.0011 21.6914V21.1314ZM29.3811 11.5114V15.1714C27.5511 16.3814 27.9911 16.1114 27.3811 16.4714C23.8631 18.2795 19.9562 19.1996 16.0011 19.1514C12.046 19.1996 8.13909 18.2795 4.62109 16.4714C3.96109 16.0714 4.51109 16.4114 2.62109 15.1714V11.5114C2.62109 10.4506 3.04252 9.43315 3.79267 8.683C4.54281 7.93286 5.56023 7.51143 6.62109 7.51143H10.6211C10.9381 7.51285 11.2442 7.39564 11.4792 7.18284C11.7142 6.97004 11.8611 6.67704 11.8911 6.36143C11.968 5.62066 12.3178 4.935 12.8723 4.43781C13.4268 3.94061 14.1464 3.66744 14.8911 3.67143H17.2311C17.9758 3.66744 18.6954 3.94061 19.2499 4.43781C19.8044 4.935 20.1541 5.62066 20.2311 6.36143C20.261 6.67704 20.408 6.97004 20.643 7.18284C20.878 7.39564 21.1841 7.51285 21.5011 7.51143H25.5011C26.541 7.54264 27.5279 7.97781 28.2523 8.7246C28.9766 9.47139 29.3816 10.471 29.3811 11.5114ZM18.3811 7.51143C18.2506 7.21319 18.1696 6.89571 18.1411 6.57143C18.1162 6.32391 18 6.09454 17.8151 5.92812C17.6302 5.7617 17.3899 5.67018 17.1411 5.67143H14.8311C14.5823 5.67018 14.342 5.7617 14.1571 5.92812C13.9722 6.09454 13.856 6.32391 13.8311 6.57143C13.8026 6.89571 13.7216 7.21319 13.5911 7.51143H18.3811Z" fill="#EFD373"></path></svg>